# Blender v2.79 (sub 0) OBJ File: ''
# www.blender.org
# mtllib def_pyramid.mtl
o Pyramid
v -1.000000 0.000000 1.000000
v 1.000000 0.000000 1.000000
v -1.000000 0.000000 -1.000000
v 1.000000 0.000000 -1.000000
v 0.000000 1.414214 0.000000
v -0.085878 -0.239343 1.051055
vn 0.0000 0.5774 0.8165
vn 0.0000 0.5774 -0.8165
vn 0.8165 0.5774 0.0000
vn -0.8165 0.5774 0.0000
vn 0.0000 -1.0000 0.0000
usemtl None
s off
f 1//1 2//1 5//1
f 3//2 5//2 4//2
f 4//3 5//3 2//3
f 5//4 3//4 1//4
f 3//5 4//5 2//5 1//5
