# Blender v2.79 (sub 0) OBJ File: ''
# www.blender.org
# mtllib scale_handle.mtl
o Cube_Cube.001
v -0.106507 1.437016 0.106507
v -0.106507 1.650030 0.106507
v -0.106507 1.437016 -0.106507
v -0.106507 1.650030 -0.106507
v 0.106507 1.437016 0.106507
v 0.106507 1.650030 0.106507
v 0.106507 1.437016 -0.106507
v 0.106507 1.650030 -0.106507
vn -1.0000 0.0000 0.0000
vn 0.0000 0.0000 -1.0000
vn 1.0000 0.0000 0.0000
vn 0.0000 0.0000 1.0000
vn 0.0000 -1.0000 0.0000
vn 0.0000 1.0000 0.0000
usemtl Material.001
s off
f 1//1 2//1 4//1 3//1
f 3//2 4//2 8//2 7//2
f 7//3 8//3 6//3 5//3
f 5//4 6//4 2//4 1//4
f 3//5 7//5 5//5 1//5
f 8//6 4//6 2//6 6//6
o Cylinder_Cylinder.001
v 0.000000 0.000000 -0.035898
v 0.000000 1.435939 -0.035898
v 0.007003 1.435939 -0.035209
v 0.007003 0.000000 -0.035209
v 0.013738 1.435939 -0.033166
v 0.013738 0.000000 -0.033166
v 0.019944 1.435939 -0.029848
v 0.019944 0.000000 -0.029849
v 0.025384 1.435939 -0.025384
v 0.025384 0.000000 -0.025384
v 0.029849 1.435939 -0.019944
v 0.029849 0.000000 -0.019944
v 0.033166 1.435939 -0.013737
v 0.033166 0.000000 -0.013738
v 0.035209 1.435939 -0.007003
v 0.035209 0.000000 -0.007003
v 0.035898 1.435939 0.000000
v 0.035898 0.000000 0.000000
v 0.035209 1.435939 0.007004
v 0.035209 -0.000000 0.007003
v 0.033166 1.435939 0.013738
v 0.033166 -0.000000 0.013738
v 0.029849 1.435939 0.019944
v 0.029849 -0.000000 0.019944
v 0.025384 1.435939 0.025384
v 0.025384 -0.000000 0.025384
v 0.019944 1.435939 0.029849
v 0.019944 -0.000000 0.029849
v 0.013738 1.435939 0.033166
v 0.013738 -0.000000 0.033166
v 0.007003 1.435939 0.035209
v 0.007003 -0.000000 0.035209
v 0.000000 1.435939 0.035899
v 0.000000 -0.000000 0.035898
v -0.007003 1.435939 0.035209
v -0.007003 -0.000000 0.035209
v -0.013738 1.435939 0.033166
v -0.013738 -0.000000 0.033166
v -0.019944 1.435939 0.029849
v -0.019944 -0.000000 0.029849
v -0.025384 1.435939 0.025384
v -0.025384 -0.000000 0.025384
v -0.029849 1.435939 0.019944
v -0.029849 -0.000000 0.019944
v -0.033166 1.435939 0.013738
v -0.033166 -0.000000 0.013738
v -0.035209 1.435939 0.007004
v -0.035209 -0.000000 0.007003
v -0.035898 1.435939 0.000000
v -0.035898 0.000000 0.000000
v -0.035209 1.435939 -0.007003
v -0.035209 0.000000 -0.007003
v -0.033166 1.435939 -0.013737
v -0.033166 0.000000 -0.013738
v -0.029849 1.435939 -0.019944
v -0.029849 0.000000 -0.019944
v -0.025384 1.435939 -0.025384
v -0.025384 0.000000 -0.025384
v -0.019944 1.435939 -0.029848
v -0.019944 0.000000 -0.029849
v -0.013738 1.435939 -0.033166
v -0.013738 0.000000 -0.033166
v -0.007003 1.435939 -0.035209
v -0.007003 0.000000 -0.035209
vn 0.0979 0.0000 -0.9952
vn 0.2903 0.0000 -0.9569
vn 0.4714 0.0000 -0.8819
vn 0.6344 0.0000 -0.7730
vn 0.7730 0.0000 -0.6344
vn 0.8819 0.0000 -0.4713
vn 0.9569 0.0000 -0.2903
vn 0.9952 0.0000 -0.0979
vn 0.9952 -0.0000 0.0979
vn 0.9569 -0.0000 0.2903
vn 0.8819 -0.0000 0.4714
vn 0.7730 -0.0000 0.6344
vn 0.6344 -0.0000 0.7730
vn 0.4714 -0.0000 0.8819
vn 0.2903 -0.0000 0.9569
vn 0.0980 -0.0000 0.9952
vn -0.0980 -0.0000 0.9952
vn -0.2903 -0.0000 0.9569
vn -0.4714 -0.0000 0.8819
vn -0.6344 -0.0000 0.7730
vn -0.7730 -0.0000 0.6344
vn -0.8819 -0.0000 0.4714
vn -0.9569 -0.0000 0.2903
vn -0.9952 -0.0000 0.0979
vn -0.9952 0.0000 -0.0979
vn -0.9569 0.0000 -0.2903
vn -0.8819 0.0000 -0.4713
vn -0.7730 0.0000 -0.6344
vn -0.6344 0.0000 -0.7730
vn -0.4714 0.0000 -0.8819
vn 0.0000 1.0000 0.0000
vn -0.2903 0.0000 -0.9569
vn -0.0979 0.0000 -0.9952
vn -0.0000 -1.0000 -0.0000
usemtl None
s 1
f 9//7 10//7 11//7 12//7
f 12//8 11//8 13//8 14//8
f 14//9 13//9 15//9 16//9
f 16//10 15//10 17//10 18//10
f 18//11 17//11 19//11 20//11
f 20//12 19//12 21//12 22//12
f 22//13 21//13 23//13 24//13
f 24//14 23//14 25//14 26//14
f 26//15 25//15 27//15 28//15
f 28//16 27//16 29//16 30//16
f 30//17 29//17 31//17 32//17
f 32//18 31//18 33//18 34//18
f 34//19 33//19 35//19 36//19
f 36//20 35//20 37//20 38//20
f 38//21 37//21 39//21 40//21
f 40//22 39//22 41//22 42//22
f 42//23 41//23 43//23 44//23
f 44//24 43//24 45//24 46//24
f 46//25 45//25 47//25 48//25
f 48//26 47//26 49//26 50//26
f 50//27 49//27 51//27 52//27
f 52//28 51//28 53//28 54//28
f 54//29 53//29 55//29 56//29
f 56//30 55//30 57//30 58//30
f 58//31 57//31 59//31 60//31
f 60//32 59//32 61//32 62//32
f 62//33 61//33 63//33 64//33
f 64//34 63//34 65//34 66//34
f 66//35 65//35 67//35 68//35
f 68//36 67//36 69//36 70//36
f 11//37 10//37 71//37 69//37 67//37 65//37 63//37 61//37 59//37 57//37 55//37 53//37 51//37 49//37 47//37 45//37 43//37 41//37 39//37 37//37 35//37 33//37 31//37 29//37 27//37 25//37 23//37 21//37 19//37 17//37 15//37 13//37
f 70//38 69//38 71//38 72//38
f 72//39 71//39 10//39 9//39
f 9//40 12//40 14//40 16//40 18//40 20//40 22//40 24//40 26//40 28//40 30//40 32//40 34//40 36//40 38//40 40//40 42//40 44//40 46//40 48//40 50//40 52//40 54//40 56//40 58//40 60//40 62//40 64//40 66//40 68//40 70//40 72//40
