# Blender v2.78 (sub 0) OBJ File: ''
# www.blender.org
# mtllib translate_handle.mtl
o Cylinder_Cylinder.001
v 0.000000 0.000000 -0.035898
v 0.000000 1.435939 -0.035898
v 0.007003 1.435939 -0.035209
v 0.007003 0.000000 -0.035209
v 0.013738 1.435939 -0.033166
v 0.013738 0.000000 -0.033166
v 0.019944 1.435939 -0.029848
v 0.019944 0.000000 -0.029849
v 0.025384 1.435939 -0.025384
v 0.025384 0.000000 -0.025384
v 0.029849 1.435939 -0.019944
v 0.029849 0.000000 -0.019944
v 0.033166 1.435939 -0.013737
v 0.033166 0.000000 -0.013738
v 0.035209 1.435939 -0.007003
v 0.035209 0.000000 -0.007003
v 0.035898 1.435939 0.000000
v 0.035898 0.000000 0.000000
v 0.035209 1.435939 0.007004
v 0.035209 -0.000000 0.007003
v 0.033166 1.435939 0.013738
v 0.033166 -0.000000 0.013738
v 0.029849 1.435939 0.019944
v 0.029849 -0.000000 0.019944
v 0.025384 1.435939 0.025384
v 0.025384 -0.000000 0.025384
v 0.019944 1.435939 0.029849
v 0.019944 -0.000000 0.029849
v 0.013738 1.435939 0.033166
v 0.013738 -0.000000 0.033166
v 0.007003 1.435939 0.035209
v 0.007003 -0.000000 0.035209
v 0.000000 1.435939 0.035899
v 0.000000 -0.000000 0.035898
v -0.007003 1.435939 0.035209
v -0.007003 -0.000000 0.035209
v -0.013738 1.435939 0.033166
v -0.013738 -0.000000 0.033166
v -0.019944 1.435939 0.029849
v -0.019944 -0.000000 0.029849
v -0.025384 1.435939 0.025384
v -0.025384 -0.000000 0.025384
v -0.029849 1.435939 0.019944
v -0.029849 -0.000000 0.019944
v -0.033166 1.435939 0.013738
v -0.033166 -0.000000 0.013738
v -0.035209 1.435939 0.007004
v -0.035209 -0.000000 0.007003
v -0.035898 1.435939 0.000000
v -0.035898 0.000000 0.000000
v -0.035209 1.435939 -0.007003
v -0.035209 0.000000 -0.007003
v -0.033166 1.435939 -0.013737
v -0.033166 0.000000 -0.013738
v -0.029849 1.435939 -0.019944
v -0.029849 0.000000 -0.019944
v -0.025384 1.435939 -0.025384
v -0.025384 0.000000 -0.025384
v -0.019944 1.435939 -0.029848
v -0.019944 0.000000 -0.029849
v -0.013738 1.435939 -0.033166
v -0.013738 0.000000 -0.033166
v -0.007003 1.435939 -0.035209
v -0.007003 0.000000 -0.035209
vn 0.0980 0.0000 -0.9952
vn 0.2903 0.0000 -0.9569
vn 0.4714 0.0000 -0.8819
vn 0.6344 0.0000 -0.7730
vn 0.7730 0.0000 -0.6344
vn 0.8819 0.0000 -0.4714
vn 0.9569 0.0000 -0.2903
vn 0.9952 0.0000 -0.0980
vn 0.9952 -0.0000 0.0980
vn 0.9569 -0.0000 0.2903
vn 0.8819 -0.0000 0.4714
vn 0.7730 -0.0000 0.6344
vn 0.6344 -0.0000 0.7730
vn 0.4714 -0.0000 0.8819
vn 0.2903 -0.0000 0.9569
vn 0.0980 -0.0000 0.9952
vn -0.0980 -0.0000 0.9952
vn -0.2903 -0.0000 0.9569
vn -0.4714 -0.0000 0.8819
vn -0.6344 -0.0000 0.7730
vn -0.7730 -0.0000 0.6344
vn -0.8819 -0.0000 0.4714
vn -0.9569 -0.0000 0.2903
vn -0.9952 -0.0000 0.0980
vn -0.9952 0.0000 -0.0980
vn -0.9569 0.0000 -0.2903
vn -0.8819 0.0000 -0.4714
vn -0.7730 0.0000 -0.6344
vn -0.6344 0.0000 -0.7730
vn -0.4714 0.0000 -0.8819
vn 0.0000 1.0000 0.0000
vn -0.2903 0.0000 -0.9569
vn -0.0980 0.0000 -0.9952
vn -0.0000 -1.0000 -0.0000
usemtl None
s 1
f 1//1 2//1 3//1 4//1
f 4//2 3//2 5//2 6//2
f 6//3 5//3 7//3 8//3
f 8//4 7//4 9//4 10//4
f 10//5 9//5 11//5 12//5
f 12//6 11//6 13//6 14//6
f 14//7 13//7 15//7 16//7
f 16//8 15//8 17//8 18//8
f 18//9 17//9 19//9 20//9
f 20//10 19//10 21//10 22//10
f 22//11 21//11 23//11 24//11
f 24//12 23//12 25//12 26//12
f 26//13 25//13 27//13 28//13
f 28//14 27//14 29//14 30//14
f 30//15 29//15 31//15 32//15
f 32//16 31//16 33//16 34//16
f 34//17 33//17 35//17 36//17
f 36//18 35//18 37//18 38//18
f 38//19 37//19 39//19 40//19
f 40//20 39//20 41//20 42//20
f 42//21 41//21 43//21 44//21
f 44//22 43//22 45//22 46//22
f 46//23 45//23 47//23 48//23
f 48//24 47//24 49//24 50//24
f 50//25 49//25 51//25 52//25
f 52//26 51//26 53//26 54//26
f 54//27 53//27 55//27 56//27
f 56//28 55//28 57//28 58//28
f 58//29 57//29 59//29 60//29
f 60//30 59//30 61//30 62//30
f 3//31 2//31 63//31 61//31 59//31 57//31 55//31 53//31 51//31 49//31 47//31 45//31 43//31 41//31 39//31 37//31 35//31 33//31 31//31 29//31 27//31 25//31 23//31 21//31 19//31 17//31 15//31 13//31 11//31 9//31 7//31 5//31
f 62//32 61//32 63//32 64//32
f 64//33 63//33 2//33 1//33
f 1//34 4//34 6//34 8//34 10//34 12//34 14//34 16//34 18//34 20//34 22//34 24//34 26//34 28//34 30//34 32//34 34//34 36//34 38//34 40//34 42//34 44//34 46//34 48//34 50//34 52//34 54//34 56//34 58//34 60//34 62//34 64//34
o Cone
v 0.000000 1.400000 -0.105000
v 0.000000 1.750000 0.000000
v 0.020484 1.400000 -0.102982
v 0.040182 1.400000 -0.097007
v 0.058335 1.400000 -0.087304
v 0.074246 1.400000 -0.074246
v 0.087304 1.400000 -0.058335
v 0.097007 1.400000 -0.040182
v 0.102983 1.400000 -0.020484
v 0.105000 1.400000 0.000000
v 0.102983 1.400000 0.020485
v 0.097007 1.400000 0.040182
v 0.087304 1.400000 0.058335
v 0.074246 1.400000 0.074246
v 0.058335 1.400000 0.087305
v 0.040182 1.400000 0.097008
v 0.020484 1.400000 0.102983
v 0.000000 1.400000 0.105000
v -0.020484 1.400000 0.102983
v -0.040182 1.400000 0.097008
v -0.058335 1.400000 0.087305
v -0.074246 1.400000 0.074246
v -0.087304 1.400000 0.058335
v -0.097007 1.400000 0.040182
v -0.102983 1.400000 0.020485
v -0.105000 1.400000 0.000000
v -0.102983 1.400000 -0.020484
v -0.097007 1.400000 -0.040182
v -0.087304 1.400000 -0.058335
v -0.074246 1.400000 -0.074246
v -0.058335 1.400000 -0.087304
v -0.040182 1.400000 -0.097007
v -0.020484 1.400000 -0.102982
vn 0.0939 0.2861 -0.9536
vn 0.2782 0.2861 -0.9169
vn 0.4517 0.2861 -0.8451
vn 0.6079 0.2861 -0.7407
vn 0.7407 0.2861 -0.6079
vn 0.8451 0.2861 -0.4517
vn 0.9169 0.2861 -0.2782
vn 0.9536 0.2861 -0.0939
vn 0.9536 0.2861 0.0939
vn 0.9169 0.2861 0.2782
vn 0.8451 0.2861 0.4517
vn 0.7407 0.2861 0.6079
vn 0.6079 0.2861 0.7407
vn 0.4517 0.2861 0.8451
vn 0.2782 0.2861 0.9169
vn 0.0939 0.2861 0.9536
vn -0.0939 0.2861 0.9536
vn -0.2782 0.2861 0.9169
vn -0.4517 0.2861 0.8451
vn -0.6079 0.2861 0.7407
vn -0.7407 0.2861 0.6079
vn -0.8451 0.2861 0.4517
vn -0.9169 0.2861 0.2782
vn -0.9536 0.2861 0.0939
vn -0.9536 0.2861 -0.0939
vn -0.9169 0.2861 -0.2782
vn -0.8451 0.2861 -0.4517
vn -0.7407 0.2861 -0.6079
vn -0.6079 0.2861 -0.7407
vn -0.4517 0.2861 -0.8451
vn -0.2782 0.2861 -0.9169
vn -0.0939 0.2861 -0.9536
vn 0.0000 -1.0000 -0.0000
usemtl None
s 1
f 65//35 66//35 67//35
f 67//36 66//36 68//36
f 68//37 66//37 69//37
f 69//38 66//38 70//38
f 70//39 66//39 71//39
f 71//40 66//40 72//40
f 72//41 66//41 73//41
f 73//42 66//42 74//42
f 74//43 66//43 75//43
f 75//44 66//44 76//44
f 76//45 66//45 77//45
f 77//46 66//46 78//46
f 78//47 66//47 79//47
f 79//48 66//48 80//48
f 80//49 66//49 81//49
f 81//50 66//50 82//50
f 82//51 66//51 83//51
f 83//52 66//52 84//52
f 84//53 66//53 85//53
f 85//54 66//54 86//54
f 86//55 66//55 87//55
f 87//56 66//56 88//56
f 88//57 66//57 89//57
f 89//58 66//58 90//58
f 90//59 66//59 91//59
f 91//60 66//60 92//60
f 92//61 66//61 93//61
f 93//62 66//62 94//62
f 94//63 66//63 95//63
f 95//64 66//64 96//64
f 96//65 66//65 97//65
f 97//66 66//66 65//66
f 65//67 67//67 68//67 69//67 70//67 71//67 72//67 73//67 74//67 75//67 76//67 77//67 78//67 79//67 80//67 81//67 82//67 83//67 84//67 85//67 86//67 87//67 88//67 89//67 90//67 91//67 92//67 93//67 94//67 95//67 96//67 97//67
